<svg width="71" height="90" viewBox="0 0 71 90" fill="none" xmlns="http://www.w3.org/2000/svg">
<rect x="53.7671" width="9.88935" height="70.7116" rx="1" transform="rotate(49.497 53.7671 0)" fill="#444473"/>
<path d="M14 53.2045C14 52.0999 14.8954 51.2045 16 51.2045H22C23.1046 51.2045 24 52.0999 24 53.2045V87.2045C24 88.309 23.1046 89.2045 22 89.2045H16C14.8954 89.2045 14 88.309 14 87.2045V53.2045Z" fill="#444473"/>
<path d="M53.3205 18.2905C53.7071 17.9571 54.2828 17.9684 54.656 18.3167L60.6797 23.9389C61.1167 24.3467 61.1006 25.0443 60.6453 25.4316L21.1795 59.0069C20.7609 59.363 20.1333 59.3145 19.7743 58.8984L14.6532 52.9617C14.2925 52.5435 14.3391 51.912 14.7573 51.5513L53.3205 18.2905Z" fill="#444473"/>
<path d="M69.9757 14.848C70.42 15.256 70.4046 15.9616 69.9429 16.3498L63.8752 21.4532C63.4908 21.7764 62.9263 21.7645 62.556 21.4252L47.8946 7.99352C47.4873 7.62044 47.4596 6.98788 47.8327 6.58065L53.1612 0.764344C53.5346 0.356754 54.1678 0.329431 54.575 0.703349L69.9757 14.848Z" fill="#444473"/>
<rect x="14" y="13.2045" width="14" height="22" rx="1" fill="#444473"/>
</svg>
